<?xml version="1.0" encoding="UTF-8"?>
<svg width="107px" height="31px" viewBox="0 0 107 31" version="1.1" xmlns="http://www.w3.org/2000/svg" xmlns:xlink="http://www.w3.org/1999/xlink">
    <!-- Generator: Sketch 54.1 (76490) - https://sketchapp.com -->
    <title>ico-firma</title>
    <desc>Created with Sketch.</desc>
    <defs>
        <polygon id="path-1" points="0 45.6174603 107 45.6174603 107 0.617460317 0 0.617460317"></polygon>
    </defs>
    <g id="Page-1" stroke="none" stroke-width="1" fill="none" fill-rule="evenodd">
        <g id="Happy-path_Cheque-de-caja_05" transform="translate(-320.000000, -458.000000)">
            <g id="Group" transform="translate(112.000000, 304.000000)">
                <g id="Group-14" transform="translate(104.000000, 139.000000)">
                    <g id="ico-firma" transform="translate(104.000000, 0.000000)">
                        <path d="M62.6991702,20.5199278 C64.3207806,18.8759642 66.1504327,19.6821658 67.7996635,21.3050623 L71,24.0496025 L53.1625277,42.371398 C51.542371,44.016088 48.8937164,44.0357023 47.2459393,42.4120794 C45.6017964,40.7928152 45.5821714,38.1456197 47.2030549,36.4987503 L62.6991702,20.5199278 Z" id="Fill-1" fill="#FAB27F"></path>
                        <path d="M80.9173946,30.7020639 C83.1363868,30.1340662 81.0956356,32.5318026 81.6714911,34.7309185 C82.2466251,36.9300344 83,38.6647496 83,38.6647496 L64.1959347,43.4852287 C61.9762208,44.0546554 59.7088797,42.7321851 59.1337458,40.5337837 C58.5586118,38.3353823 59.8914505,36.0926842 62.1126076,35.5218286 L80.9173946,30.7020639 Z" id="Fill-3" fill="#DD915E"></path>
                        <path d="M90.2969277,27.832518 C92.4084322,26.8089069 90.8464063,29.657538 91.8700318,31.7773461 C92.8921802,33.8971543 94,35.5081196 94,35.5081196 L76.1035405,44.1910375 C73.9912974,45.2168706 71.4484817,44.3280621 70.4255948,42.2089947 C69.4027078,40.0899272 70.286748,37.5405283 72.4012067,36.5139545 L90.2969277,27.832518 Z" id="Fill-5" fill="#DD915E"></path>
                        <path d="M64.1860973,24.9241848 L74.7735623,30.5076006 C75.0703867,30.5076006 75.3548434,30.4763514 75.63348,30.4167601 C75.6371176,30.4480092 75.6509403,30.4778049 75.6553054,30.5076006 C76.167473,34.8061694 81.1654723,44.2543001 91.8489688,43.5835344 C98.051726,43.1954641 100,38.0320945 100,38.0320945 L100,22.1422877 L80.7806191,21.1045267 L73.9522025,18.9243565 C73.9522025,18.9243565 66.9535484,15.2115267 66.351897,15.6541013 C64.4981994,17.0203412 60,23.0828292 60,23.0828292 C60,25.3923561 61.8726129,24.9241848 64.1860973,24.9241848 Z" id="Fill-7" fill="#FAB27F"></path>
                        <mask id="mask-2" fill="white">
                            <use xlink:href="#path-1"></use>
                        </mask>
                        <g id="Clip-10"></g>
                        <polygon id="Fill-9" fill="#072146" mask="url(#mask-2)" points="102 41.6174603 107 41.6174603 107 20.6174603 102 20.6174603"></polygon>
                        <path d="M69.8847016,22.6174603 L74.1519752,25.3082219 L82,30.3025342 L74.6408169,30.5429213 L71.0248178,28.5633049 L64.110051,36.0369272 C62.4807682,37.6559629 60.9517065,38.2895817 59.2946477,36.6898628 C57.6412436,35.0958674 57.4971606,33.9179877 59.2946477,31.6706583 L69.8847016,22.6174603 Z" id="Fill-11" fill="#DD915E" mask="url(#mask-2)"></path>
                        <path d="M82.8049542,29.6174603 C85.1203164,29.6174603 87,31.6313589 87,34.1174603 C87,36.6035618 85.1203164,38.6174603 82.8049542,38.6174603 L63.1950458,38.6174603 C60.8796836,38.6174603 59,36.6035618 59,34.1174603 C59,31.6313589 60.8796836,29.6174603 63.1950458,29.6174603 L82.8049542,29.6174603 Z" id="Fill-24" fill="#FAB27F" mask="url(#mask-2)"></path>
                        <path d="M40,30.6174603 L1,30.6174603" id="Stroke-25" stroke="#121212" stroke-width="2" stroke-linecap="round" mask="url(#mask-2)"></path>
                        <path d="M6,29.6174603 L40.7115385,29.6174603 C42.7299231,29.6174603 44,30.8518603 44,33.0822603 L44,33.2062603 C44,35.4366603 42.7299231,37.6174603 40.7115385,37.6174603 L10.3846154,37.6174603" id="Stroke-26" stroke="#121212" stroke-width="2" stroke-linecap="round" mask="url(#mask-2)"></path>
                        <path d="M49,45.6174603 L9.39473684,45.6174603 C7.72829825,45.6174603 6,43.4566603 6,41.2846603 L6,41.1502603 C6,38.9782603 7.72829825,37.6174603 9.39473684,37.6174603 L34.6666667,37.6174603" id="Stroke-27" stroke="#121212" stroke-width="2" stroke-linecap="round" mask="url(#mask-2)"></path>
                    </g>
                </g>
            </g>
        </g>
    </g>
</svg>