<?xml version="1.0" encoding="UTF-8"?>
<svg width="224px" height="150px" viewBox="0 0 224 150" version="1.1" xmlns="http://www.w3.org/2000/svg" xmlns:xlink="http://www.w3.org/1999/xlink">
    <!-- Generator: Sketch 54.1 (76490) - https://sketchapp.com -->
    <title>Microilustration_IFEocr</title>
    <desc>Created with Sketch.</desc>
    <defs>
        <rect id="path-1" x="0" y="0" width="224" height="150" rx="4"></rect>
        <polygon id="path-3" points="30.5091702 44.6428571 0.000223902439 44.6428571 0.000223902439 0.30014881 30.5091702 0.30014881 30.5091702 44.6428571"></polygon>
        <polygon id="path-5" points="2.1165727e-15 31.906196 2.1165727e-15 0.0212292359 35.96175 0.0212292359 35.96175 31.906196 0 31.906196"></polygon>
    </defs>
    <g id="Page-1" stroke="none" stroke-width="1" fill="none" fill-rule="evenodd">
        <g id="Happy-path_Cheque-de-caja_Modal-IFE-/-INE" transform="translate(-137.000000, -515.000000)">
            <g id="Group-19" transform="translate(112.000000, 303.000000)">
                <g id="Microilustration_IFEocr" transform="translate(25.000000, 212.000000)">
                    <g id="Group-3">
                        <mask id="mask-2" fill="white">
                            <use xlink:href="#path-1"></use>
                        </mask>
                        <g id="Mask"></g>
                        <rect id="background" fill="#E9E9E9" mask="url(#mask-2)" x="0" y="0" width="224" height="150"></rect>
                    </g>
                    <rect id="magnetic-band" fill="#000000" x="0" y="10" width="224" height="30"></rect>
                    <g id="Group" transform="translate(6.000000, 46.000000)">
                        <rect id="background" fill="#FFFFFF" transform="translate(12.000000, 49.000000) rotate(-90.000000) translate(-12.000000, -49.000000) " x="-37" y="37" width="98" height="24"></rect>
                        <text id="1234567890123" transform="translate(12.000000, 49.500000) rotate(-90.000000) translate(-12.000000, -49.500000) " font-family="BentonSansBBVA-Medium, Benton Sans BBVA" font-size="11" font-weight="400" line-spacing="11" fill="#121212">
                            <tspan x="-30" y="57">1234567890123</tspan>
                        </text>
                    </g>
                    <text id="OCR" transform="translate(37.000000, 92.000000) rotate(-90.000000) translate(-37.000000, -92.000000) " font-family="BentonSansBBVA-Medium, Benton Sans BBVA" font-size="6" font-weight="400" line-spacing="6" fill="#121212">
                        <tspan x="-9" y="97">OCR</tspan>
                    </text>
                    <g id="Page-1" transform="translate(178.000000, 50.000000)">
                        <path d="M18.4504092,32.1428571 C19.1951804,32.1428571 19.8,31.5510963 19.8,30.8204992 L19.8,19.1795008 C19.8,18.4489037 19.1951804,17.8571429 18.4504092,17.8571429 C17.7040012,17.8571429 17.1,18.4489037 17.1,19.1795008 L17.1,30.8204992 C17.1,31.5510963 17.7040012,32.1428571 18.4504092,32.1428571" id="Fill-1" fill="#49A5E6"></path>
                        <g id="Group-5" transform="translate(0.000000, 5.357143)">
                            <mask id="mask-4" fill="white">
                                <use xlink:href="#path-3"></use>
                            </mask>
                            <g id="Clip-4"></g>
                            <path d="M18.0594483,0.30014881 C11.1938532,0.30014881 5.60898,5.86785714 5.60898,12.7130952 L5.60898,31.1401786 L5.60898,40.6200893 C5.60898,41.4854167 4.90368732,42.1885417 4.0356922,42.1885417 C3.16769707,42.1885417 2.46240439,41.4854167 2.46240439,40.6200893 L2.46240439,24.5724702 C2.46240439,23.8953869 1.91085805,23.3455357 1.23094098,23.3455357 C0.551023902,23.3455357 0.000223902439,23.8953869 0.000223902439,24.5724702 L0.000223902439,40.6200893 C0.000223902439,42.8388393 1.81084829,44.6431548 4.0356922,44.6431548 C6.04111171,44.6431548 7.70545317,43.1766369 8.01518488,41.2629464 C8.0480239,41.1513393 8.07116049,41.0360119 8.07116049,40.9139881 L8.07116049,40.6200893 L8.07116049,31.1401786 L8.07116049,12.7130952 C8.07116049,7.22276786 12.5521946,2.75550595 18.0594483,2.75550595 C23.5659556,2.75550595 28.0462434,7.22276786 28.0462434,12.7130952 L28.0462434,28.2294643 L28.0462434,31.7748512 L28.0462434,34.975 C28.0462434,38.9214286 24.8242873,42.1342262 20.8641995,42.1342262 C16.9033654,42.1342262 13.6806629,38.9214286 13.6806629,34.975 L13.6806629,31.365625 L13.6806629,28.5010417 L13.6806629,22.56875 L13.6806629,13.0933036 C13.6806629,10.6863095 15.6450337,8.72797619 18.0594483,8.72797619 C20.4723702,8.72797619 22.436741,10.6863095 22.436741,13.0933036 L22.436741,16.8604167 C22.436741,17.538244 22.9882873,18.0880952 23.6689507,18.0880952 C24.3481215,18.0880952 24.8989215,17.538244 24.8989215,16.8604167 L24.8989215,13.0933036 C24.8989215,9.3328869 21.8307117,6.27261905 18.0594483,6.27261905 C14.2866922,6.27261905 11.2184824,9.3328869 11.2184824,13.0933036 L11.2184824,22.56875 L11.2184824,28.5010417 L11.2184824,31.365625 L11.2184824,34.975 L11.2184824,35.5099702 C11.2184824,35.615625 11.2356483,35.7168155 11.2610239,35.8142857 C11.6894239,40.7227679 15.82938,44.5888393 20.8641995,44.5888393 C26.1818824,44.5888393 30.5091702,40.2763393 30.5091702,34.975 L30.5091702,31.7748512 L30.5091702,28.2294643 L30.5091702,12.7130952 C30.5091702,5.86785714 24.9235507,0.30014881 18.0594483,0.30014881" id="Fill-3" fill="#49A5E6" mask="url(#mask-4)"></path>
                        </g>
                        <path d="M34.6495908,34.8214286 C33.9040012,34.8214286 33.3,35.3622543 33.3,36.029859 L33.3,47.8987124 C33.3,48.5663171 33.9040012,49.1071429 34.6495908,49.1071429 C35.3959988,49.1071429 36,48.5663171 36,47.8987124 L36,36.029859 C36,35.3622543 35.3959988,34.8214286 34.6495908,34.8214286" id="Fill-6" fill="#49A5E6"></path>
                        <g id="Group-10">
                            <mask id="mask-6" fill="white">
                                <use xlink:href="#path-5"></use>
                            </mask>
                            <g id="Clip-9"></g>
                            <path d="M17.98095,0.0212292359 C8.0652,0.0212292359 -0.0003,8.06068106 -0.0003,17.9419934 L-0.0003,24.2778738 C-0.0003,24.9581063 0.55395,25.5112625 1.2372,25.5112625 C1.92045,25.5112625 2.47395,24.9581063 2.47395,24.2778738 L2.47395,17.9419934 C2.47395,9.42039867 9.43095,2.48800664 17.98095,2.48800664 C26.53095,2.48800664 33.4872,9.42039867 33.4872,17.9419934 L33.4872,30.6728073 C33.4872,31.3537874 34.0407,31.906196 34.72395,31.906196 C35.40795,31.906196 35.9622,31.3537874 35.9622,30.6728073 L35.9622,17.9419934 C35.9622,8.06068106 27.8952,0.0212292359 17.98095,0.0212292359" id="Fill-8" fill="#49A5E6" mask="url(#mask-6)"></path>
                        </g>
                        <path d="M17.1,40.4920097 C17.1,42.7806541 18.9176934,44.6428571 21.1507338,44.6428571 C23.3837742,44.6428571 25.2,42.7806541 25.2,40.4920097 L25.2,28.0274336 C25.2,27.3422693 24.6584345,26.7857143 23.9899167,26.7857143 C23.320665,26.7857143 22.7783656,27.3422693 22.7783656,28.0274336 L22.7783656,40.4920097 C22.7783656,41.4125818 22.0474724,42.1609226 21.1507338,42.1609226 C20.2517938,42.1609226 19.5216344,41.4125818 19.5216344,40.4920097 L19.5216344,36.3201034 C19.5216344,35.634939 18.979335,35.0798882 18.3108172,35.0798882 C17.6415655,35.0798882 17.1,35.634939 17.1,36.3201034 L17.1,40.4920097 Z" id="Fill-11" fill="#49A5E6"></path>
                    </g>
                </g>
            </g>
        </g>
    </g>
</svg>