<?xml version="1.0" encoding="UTF-8"?>
<svg width="114px" height="114px" viewBox="0 0 114 114" version="1.1" xmlns="http://www.w3.org/2000/svg" xmlns:xlink="http://www.w3.org/1999/xlink">
    <!-- Generator: Sketch 54.1 (76490) - https://sketchapp.com -->
    <title>Precaptura_de_informai贸n_Microilustration_Actualizaci贸n_datos</title>
    <desc>Created with Sketch.</desc>
    <defs>
        <polygon id="path-1" points="0 0 113.832206 0 113.832206 113.90025 0 113.90025"></polygon>
        <polygon id="path-3" points="0.21363125 0.15485 97.375 0.15485 97.375 97.3748813 0.21363125 97.3748813"></polygon>
        <polygon id="path-5" points="0 114 114 114 114 0 0 0"></polygon>
        <polygon id="path-7" points="2.64575 3.46275 1.489125 2.2883125 0.9796875 2.819125 2.652875 4.5184375 6.23675 0.8324375 5.719 0.3075625"></polygon>
        <polygon id="path-9" points="0 114 114 114 114 0 0 0"></polygon>
    </defs>
    <g id="Page-1" stroke="none" stroke-width="1" fill="none" fill-rule="evenodd">
        <g id="Happy-path_Cheque-de-caja_01" transform="translate(-152.000000, -824.000000)">
            <g id="Group-13" transform="translate(64.000000, 800.000000)">
                <g id="Precaptura_de_informai贸n_Microilustration_Actualizaci贸n_datos" transform="translate(88.000000, 24.000000)">
                    <g id="Group-21">
                        <g id="Group-3">
                            <mask id="mask-2" fill="white">
                                <use xlink:href="#path-1"></use>
                            </mask>
                            <g id="Clip-2"></g>
                            <path d="M56.9153312,0 C88.3496437,0 113.832206,25.498 113.832206,56.9513125 C113.832206,88.4010625 88.3496437,113.90025 56.9153312,113.90025 C25.4822062,113.90025 -0.00035625,88.4010625 -0.00035625,56.9513125 C-0.00035625,25.498 25.4822062,0 56.9153312,0" id="Fill-1" fill="#004481" mask="url(#mask-2)"></path>
                        </g>
                        <g id="Group-6" transform="translate(16.625000, 16.625000)">
                            <mask id="mask-4" fill="white">
                                <use xlink:href="#path-3"></use>
                            </mask>
                            <g id="Clip-5"></g>
                            <path d="M80.7047563,0.15485 C102.932381,22.3955375 102.932381,58.4551625 80.7047563,80.69585 C58.4783187,102.934162 22.4412562,102.93535 0.21363125,80.6946625 L80.7047563,0.15485 Z" id="Fill-4" fill="#053161" mask="url(#mask-4)"></path>
                        </g>
                        <polygon id="Fill-7" fill="#F9DD8D" points="41.16825 94.2996125 42.2619375 97.6982375 43.358 94.2996125 46.76375 93.2071125 43.358 92.1146125 42.2619375 88.7159875 41.16825 92.1146125 37.7636875 93.2071125"></polygon>
                        <polygon id="Fill-9" fill="#F9DD8D" points="100.706769 56.747775 103.240894 57.56715 104.053144 60.115525 104.868956 57.56715 107.404269 56.747775 104.868956 55.9284 104.053144 53.380025 103.240894 55.9284"></polygon>
                        <polygon id="Fill-11" fill="#F9DD8D" points="35.5322563 20.2391562 37.2208813 20.7854062 37.7635688 22.4847188 38.3074438 20.7854062 39.9960687 20.2391562 38.3074438 19.6929063 37.7635688 17.9935937 37.2208813 19.6929063"></polygon>
                        <path d="M90.84375,80.9622063 C90.84375,82.1960188 89.5149375,83.1982688 87.8761875,83.1982688 L26.1238125,83.1982688 C24.4850625,83.1982688 23.15625,82.1960188 23.15625,80.9622063 L23.15625,37.5685812 C23.15625,36.3323938 24.4850625,35.3313313 26.1238125,35.3313313 L87.8761875,35.3313313 C89.5149375,35.3313313 90.84375,36.3323938 90.84375,37.5685812 L90.84375,80.9622063" id="Fill-13" fill="#053161"></path>
                        <path d="M90.84375,78.7054813 C90.84375,79.9404813 89.5149375,80.9415437 87.8761875,80.9415437 L26.1238125,80.9415437 C24.4850625,80.9415437 23.15625,79.9404813 23.15625,78.7054813 L23.15625,36.4993562 C23.15625,35.2643562 24.4850625,34.2632937 26.1238125,34.2632937 L87.8761875,34.2632937 C89.5149375,34.2632937 90.84375,35.2643562 90.84375,36.4993562 L90.84375,78.7054813" id="Fill-15" fill="#F0F0F0"></path>
                        <path d="M87.8761875,33.0754375 L26.125,33.0754375 C24.4850625,33.0754375 23.15625,34.0765 23.15625,35.3126875 L23.15625,39.812125 L90.84375,39.812125 L90.84375,35.3126875 C90.84375,34.0765 89.5149375,33.0754375 87.8761875,33.0754375" id="Fill-17" fill="#4AA3E5"></path>
                        <mask id="mask-6" fill="white">
                            <use xlink:href="#path-5"></use>
                        </mask>
                        <g id="Clip-20"></g>
                        <polygon id="Fill-19" fill="#49AD64" mask="url(#mask-6)" points="59.3856875 73.641625 82.410125 73.641625 82.410125 66.3919375 59.3856875 66.3919375"></polygon>
                    </g>
                    <g id="Group-24" transform="translate(67.687500, 67.687500)">
                        <mask id="mask-8" fill="white">
                            <use xlink:href="#path-7"></use>
                        </mask>
                        <g id="Clip-23"></g>
                        <polygon id="Fill-22" fill="#FFFFFF" mask="url(#mask-8)" points="0.82175 4.6775625 6.3923125 4.6775625 6.3923125 0.14725 0.82175 0.14725"></polygon>
                    </g>
                    <g id="Group-49">
                        <path d="M40.4665563,60.2621812 C44.1228688,60.2621812 47.0868688,57.3195562 47.0868688,53.7475562 C47.0868688,50.0568062 44.1228688,47.1129937 40.4665563,47.1129937 C36.8114313,47.1129937 33.8474313,50.0568062 33.8474313,53.7475562 C33.8474313,57.3195562 36.8114313,60.2621812 40.4665563,60.2621812" id="Fill-25" fill="#4AA3E5"></path>
                        <path d="M45.3476562,49.2545312 L45.3476562,49.2545312 C46.4270937,50.4325312 47.0873438,52.0071562 47.0873438,53.7480312 C47.0873438,52.0071562 46.4282812,50.4325312 45.3476562,49.2545312 M45.0614687,58.4291563 C44.0414062,59.3981563 42.7090312,60.0512813 41.2270312,60.2187188 C42.7090312,60.0512813 44.0414062,59.3981563 45.0614687,58.4291563 M41.2234687,60.2187187 C40.9752812,60.2484063 40.7223437,60.2626563 40.4670312,60.2626563 C40.7223437,60.2626563 40.9752812,60.2484063 41.2234687,60.2187187" id="Fill-27" fill="#7797B7"></path>
                        <path d="M45.3476562,49.255125 L36.0305313,58.57225 C37.2049688,59.6208125 38.7605938,60.2620625 40.4670313,60.2620625 C40.7223438,60.2620625 40.9752812,60.2478125 41.2234688,60.2193125 L41.2270313,60.2193125 C42.7090312,60.0506875 44.0414062,59.39875 45.0614688,58.4285625 C45.1101562,58.38225 45.1576563,58.3359375 45.2039687,58.2884375 L45.2063438,58.2860625 C46.2964688,57.182875 46.9947187,55.705625 47.0778437,54.0799375 C47.0837813,53.9706875 47.0873438,53.8590625 47.0873438,53.7474375 C47.0873438,52.0065625 46.4270937,50.433125 45.3476562,49.255125" id="Fill-29" fill="#1C73B7"></path>
                        <path d="M29.0624,73.6412687 L29.0624,71.1190187 C29.0624,65.5793312 33.41815,60.5942062 38.959025,60.5942062 L41.975275,60.5942062 C47.5149625,60.5942062 52.0868375,65.5793312 52.0868375,71.1190187 L52.0868375,73.6412687 L29.0624,73.6412687" id="Fill-31" fill="#4AA3E5"></path>
                        <path d="M46.4215125,61.7222125 L46.4215125,61.7222125 C49.7631375,63.502275 52.087075,67.169275 52.087075,71.1189 L52.087075,73.64115 L52.087075,71.1189 C52.087075,67.169275 49.7631375,63.502275 46.4215125,61.7222125" id="Fill-33" fill="#7797B7"></path>
                        <path d="M46.4215125,61.7222125 C42.5193875,65.54715 37.936825,70.05965 34.3660125,73.64115 L52.087075,73.64115 L52.087075,71.1189 C52.087075,67.169275 49.7631375,63.502275 46.4215125,61.7222125" id="Fill-35" fill="#1C73B7"></path>
                        <path d="M77.6907625,36.3358375 C77.8546375,37.0554625 77.4105125,37.7727125 76.7003875,37.9389625 C75.9902625,38.1052125 75.2837,37.6563375 75.1186375,36.935525 C74.95595,36.2159 75.3988875,35.4974625 76.1102,35.3324 C76.8191375,35.1673375 77.5268875,35.6174 77.6907625,36.3358375" id="Fill-37" fill="#F7CC51"></path>
                        <path d="M81.709025,36.3358375 C81.8729,37.0554625 81.43115,37.7727125 80.7198375,37.9389625 C80.0097125,38.1052125 79.3019625,37.6563375 79.1380875,36.935525 C78.9742125,36.2159 79.4183375,35.4974625 80.1284625,35.3324 C80.8385875,35.1673375 81.5463375,35.6174 81.709025,36.3358375" id="Fill-39" fill="#F25E61"></path>
                        <path d="M85.6043813,36.3358375 C85.7682563,37.0554625 85.3253188,37.7727125 84.6151938,37.9389625 C83.9050688,38.1052125 83.1973188,37.6563375 83.0334438,36.935525 C82.8707562,36.2159 83.3136937,35.4974625 84.0238188,35.3324 C84.7339437,35.1673375 85.4416937,35.6174 85.6043813,36.3358375" id="Fill-41" fill="#87C999"></path>
                        <path d="M85.6379875,56.747775 C85.6379875,57.14915 85.311425,57.4733375 84.9064875,57.4733375 L60.3846125,57.4733375 C59.979675,57.4733375 59.6507375,57.14915 59.6507375,56.747775 C59.6507375,56.3475875 59.979675,56.0222125 60.3846125,56.0222125 L84.9064875,56.0222125 C85.311425,56.0222125 85.6379875,56.3475875 85.6379875,56.747775" id="Fill-43" fill="#D2D2D2"></path>
                        <path d="M85.6379875,61.0993687 C85.6379875,61.5007437 85.311425,61.8237437 84.9064875,61.8237437 L60.3846125,61.8237437 C59.979675,61.8237437 59.6507375,61.5007437 59.6507375,61.0993687 C59.6507375,60.6991812 59.979675,60.3749937 60.3846125,60.3749937 L84.9064875,60.3749937 C85.311425,60.3749937 85.6379875,60.6991812 85.6379875,61.0993687" id="Fill-45" fill="#D2D2D2"></path>
                        <mask id="mask-10" fill="white">
                            <use xlink:href="#path-9"></use>
                        </mask>
                        <g id="Clip-48"></g>
                        <polygon id="Fill-47" fill="#BCBCBC" mask="url(#mask-10)" points="60.279875 51.25725 77.256375 51.25725 77.256375 47.112875 60.279875 47.112875"></polygon>
                    </g>
                </g>
            </g>
        </g>
    </g>
</svg>