<?xml version="1.0" encoding="UTF-8"?>
<svg width="114px" height="114px" viewBox="0 0 114 114" version="1.1" xmlns="http://www.w3.org/2000/svg" xmlns:xlink="http://www.w3.org/1999/xlink">
    <!-- Generator: Sketch 54.1 (76490) - https://sketchapp.com -->
    <title>Precaptura_de_informaión_Microilustration_Apertura_cuenta</title>
    <desc>Created with Sketch.</desc>
    <defs>
        <polygon id="path-1" points="0 0 113.832206 0 113.832206 113.90025 0 113.90025"></polygon>
        <polygon id="path-3" points="0.21363125 0.15485 97.375 0.15485 97.375 97.3748813 0.21363125 97.3748813"></polygon>
        <polygon id="path-5" points="0 114 114 114 114 0 0 0"></polygon>
        <path d="M0.6329375,4.804625 C0.6329375,7.022875 2.432,8.8219375 4.6490625,8.8219375 L4.6490625,8.8219375 C6.8673125,8.8219375 8.6651875,7.022875 8.6651875,4.804625 L8.6651875,4.804625 C8.6651875,2.5851875 6.8673125,0.786125 4.6490625,0.786125 L4.6490625,0.786125 C2.432,0.786125 0.6329375,2.5851875 0.6329375,4.804625" id="path-7"></path>
    </defs>
    <g id="Page-1" stroke="none" stroke-width="1" fill="none" fill-rule="evenodd">
        <g id="Happy-path_Cheque-de-caja_01" transform="translate(-496.000000, -600.000000)">
            <g id="Group-12" transform="translate(400.000000, 576.000000)">
                <g id="Precaptura_de_informaión_Microilustration_Apertura_cuenta" transform="translate(96.000000, 24.000000)">
                    <g id="Group-40">
                        <g id="Group-3">
                            <mask id="mask-2" fill="white">
                                <use xlink:href="#path-1"></use>
                            </mask>
                            <g id="Clip-2"></g>
                            <path d="M56.9153312,0 C88.3496437,0 113.832206,25.498 113.832206,56.9513125 C113.832206,88.4010625 88.3496437,113.90025 56.9153312,113.90025 C25.4822062,113.90025 -0.00035625,88.4010625 -0.00035625,56.9513125 C-0.00035625,25.498 25.4822062,0 56.9153312,0" id="Fill-1" fill="#004481" mask="url(#mask-2)"></path>
                        </g>
                        <g id="Group-6" transform="translate(16.625000, 16.625000)">
                            <mask id="mask-4" fill="white">
                                <use xlink:href="#path-3"></use>
                            </mask>
                            <g id="Clip-5"></g>
                            <path d="M80.7047563,0.15485 C102.932381,22.3955375 102.932381,58.4551625 80.7047563,80.69585 C58.4783187,102.934162 22.4412562,102.93535 0.21363125,80.6946625 L80.7047563,0.15485 Z" id="Fill-4" fill="#053161" mask="url(#mask-4)"></path>
                        </g>
                        <polygon id="Fill-7" fill="#F9DD8D" points="88.66825 89.5496125 89.7619375 92.9482375 90.858 89.5496125 94.26375 88.4571125 90.858 87.3646125 89.7619375 83.9659875 88.66825 87.3646125 85.2636875 88.4571125"></polygon>
                        <polygon id="Fill-9" fill="#F9DD8D" points="57.2898687 11.6274062 59.8239937 12.4467812 60.6362437 14.9963438 61.4520562 12.4467812 63.9873687 11.6274062 61.4520562 10.8080313 60.6362437 8.25965625 59.8239937 10.8080313"></polygon>
                        <polygon id="Fill-11" fill="#F9DD8D" points="10.5657813 61.7244687 12.2544063 62.2707187 12.7970938 63.9700312 13.3409688 62.2707187 15.0295938 61.7244687 13.3409688 61.1782187 12.7970938 59.4789063 12.2544063 61.1782187"></polygon>
                        <path d="M40.2927063,23.4432687 C36.5069563,24.1415187 33.1522688,27.4035812 32.5929563,31.5966437 L32.5929563,81.9169562 L60.7355188,81.9169562 C60.7509563,86.5767062 64.6958312,90.6545812 69.5598313,90.6545812 C74.4345188,90.6545812 77.9934563,86.6776437 77.9934563,81.8005812 L77.9934563,80.9075812 L77.9934563,29.9899562 L84.6968938,29.9899562 L84.6968938,23.3447062 L40.2927063,23.4432687" id="Fill-13" fill="#F3F3F3"></path>
                        <path d="M90.0088188,29.9901937 C90.0088188,26.3196312 87.3333813,23.3449437 84.0321313,23.3449437 C80.7320688,23.3449437 78.0554438,26.3196312 78.0554438,29.9901937 L90.0088188,29.9901937 Z" id="Fill-15" fill="#D2D2D2"></path>
                        <mask id="mask-6" fill="white">
                            <use xlink:href="#path-5"></use>
                        </mask>
                        <g id="Clip-18"></g>
                        <polygon id="Fill-17" fill="#2B85C9" mask="url(#mask-6)" points="51.682375 83.8565 69.3773125 83.8565 69.3773125 83.003875 51.682375 83.003875"></polygon>
                        <path d="M71.2407375,43.9433188 C71.2407375,44.3292563 70.9272375,44.6427562 70.5424875,44.6427562 L37.4801125,44.6427562 C37.0953625,44.6427562 36.7818625,44.3292563 36.7818625,43.9433188 C36.7818625,43.5573812 37.0953625,43.2450688 37.4801125,43.2450688 L70.5424875,43.2450688 C70.9272375,43.2450688 71.2407375,43.5573812 71.2407375,43.9433188" id="Fill-19" fill="#2B85C9" mask="url(#mask-6)"></path>
                        <path d="M71.2407375,47.670525 C71.2407375,48.05765 70.9272375,48.3699625 70.5424875,48.3699625 L37.4801125,48.3699625 C37.0953625,48.3699625 36.7818625,48.05765 36.7818625,47.670525 C36.7818625,47.2845875 37.0953625,46.972275 37.4801125,46.972275 L70.5424875,46.972275 C70.9272375,46.972275 71.2407375,47.2845875 71.2407375,47.670525" id="Fill-20" fill="#2B85C9" mask="url(#mask-6)"></path>
                        <path d="M71.2407375,51.6307187 C71.2407375,52.0178437 70.9272375,52.3301562 70.5424875,52.3301562 L37.4801125,52.3301562 C37.0953625,52.3301562 36.7818625,52.0178437 36.7818625,51.6307187 C36.7818625,51.2447812 37.0953625,50.9324687 37.4801125,50.9324687 L70.5424875,50.9324687 C70.9272375,50.9324687 71.2407375,51.2447812 71.2407375,51.6307187" id="Fill-21" fill="#2B85C9" mask="url(#mask-6)"></path>
                        <path d="M71.2407375,55.3591125 C71.2407375,55.74505 70.9272375,56.0573625 70.5424875,56.0573625 L37.4801125,56.0573625 C37.0953625,56.0573625 36.7818625,55.74505 36.7818625,55.3591125 C36.7818625,54.973175 37.0953625,54.659675 37.4801125,54.659675 L70.5424875,54.659675 C70.9272375,54.659675 71.2407375,54.973175 71.2407375,55.3591125" id="Fill-22" fill="#2B85C9" mask="url(#mask-6)"></path>
                        <path d="M71.2407375,59.0862 C71.2407375,59.4721375 70.9272375,59.7856375 70.5424875,59.7856375 L37.4801125,59.7856375 C37.0953625,59.7856375 36.7818625,59.4721375 36.7818625,59.0862 C36.7818625,58.7002625 37.0953625,58.3867625 37.4801125,58.3867625 L70.5424875,58.3867625 C70.9272375,58.3867625 71.2407375,58.7002625 71.2407375,59.0862" id="Fill-23" fill="#2B85C9" mask="url(#mask-6)"></path>
                        <path d="M71.2407375,63.0465125 C71.2407375,63.43245 70.9272375,63.74595 70.5424875,63.74595 L37.4801125,63.74595 C37.0953625,63.74595 36.7818625,63.43245 36.7818625,63.0465125 C36.7818625,62.660575 37.0953625,62.347075 37.4801125,62.347075 L70.5424875,62.347075 C70.9272375,62.347075 71.2407375,62.660575 71.2407375,63.0465125" id="Fill-24" fill="#2B85C9" mask="url(#mask-6)"></path>
                        <path d="M71.2407375,66.7747875 C71.2407375,67.1595375 70.9272375,67.4730375 70.5424875,67.4730375 L37.4801125,67.4730375 C37.0953625,67.4730375 36.7818625,67.1595375 36.7818625,66.7747875 C36.7818625,66.3876625 37.0953625,66.0741625 37.4801125,66.0741625 L70.5424875,66.0741625 C70.9272375,66.0741625 71.2407375,66.3876625 71.2407375,66.7747875" id="Fill-25" fill="#2B85C9" mask="url(#mask-6)"></path>
                        <path d="M51.6829688,72.0153437 C51.6829688,72.3371563 51.4217187,72.5972187 51.1010937,72.5972187 L37.3640938,72.5972187 C37.0434688,72.5972187 36.7822187,72.3371563 36.7822187,72.0153437 C36.7822187,71.6935312 37.0434688,71.4334688 37.3640938,71.4334688 L51.1010937,71.4334688 C51.4217187,71.4334688 51.6829688,71.6935312 51.6829688,72.0153437" id="Fill-26" fill="#2B85C9" mask="url(#mask-6)"></path>
                        <path d="M32.5924812,80.2362875 L32.5924812,81.9166 L60.7350438,81.9166 C60.7362313,82.2835375 60.7623563,82.645725 60.8110438,83.00435 L69.3788563,83.00435 L69.3788563,83.856975 L60.9701688,83.856975 C61.8904813,87.652225 65.3864813,90.654225 69.5605438,90.654225 C74.4340438,90.654225 77.9929813,86.6772875 77.9929813,81.800225 L77.9929813,80.907225 L77.9929813,36.1277875 L32.5924812,80.2362875 Z" id="Fill-27" fill="#E6E6E6" mask="url(#mask-6)"></path>
                        <path d="M69.3782625,83.00435 L60.81045,83.00435 C60.84845,83.291725 60.903075,83.5755375 60.9707625,83.856975 L69.3782625,83.856975 L69.3782625,83.00435" id="Fill-28" fill="#297FBD" mask="url(#mask-6)"></path>
                        <path d="M70.5426063,43.2445937 L69.5605438,43.2445937 L68.1628563,44.6434687 L70.5426063,44.6434687 C70.9273563,44.6434687 71.2408563,44.3287812 71.2408563,43.9428438 C71.2408563,43.5580938 70.9273563,43.2445937 70.5426063,43.2445937" id="Fill-29" fill="#297FBD" mask="url(#mask-6)"></path>
                        <path d="M70.5426063,46.9718 L65.8353563,46.9718 L64.4376688,48.370675 L70.5426063,48.370675 C70.9273563,48.370675 71.2408563,48.057175 71.2408563,47.67005 C71.2408563,47.2853 70.9273563,46.9718 70.5426063,46.9718" id="Fill-30" fill="#297FBD" mask="url(#mask-6)"></path>
                        <path d="M70.5426063,50.9319937 L61.8774188,50.9319937 L60.4797313,52.3308687 L70.5426063,52.3308687 C70.9273563,52.3308687 71.2408563,52.0173687 71.2408563,51.6302437 C71.2408563,51.2454938 70.9273563,50.9319937 70.5426063,50.9319937" id="Fill-31" fill="#297FBD" mask="url(#mask-6)"></path>
                        <path d="M70.5426063,54.6597937 L58.1522313,54.6597937 L56.7557313,56.0574812 L70.5426063,56.0574812 C70.9273563,56.0574812 71.2408563,55.7451687 71.2408563,55.3592312 C71.2408563,54.9732938 70.9273563,54.6597937 70.5426063,54.6597937" id="Fill-32" fill="#297FBD" mask="url(#mask-6)"></path>
                        <path d="M70.5426063,58.387 L54.4282313,58.387 L53.0305438,59.785875 L70.5426063,59.785875 C70.9273563,59.785875 71.2408563,59.472375 71.2408563,59.0864375 C71.2408563,58.7005 70.9273563,58.387 70.5426063,58.387" id="Fill-33" fill="#297FBD" mask="url(#mask-6)"></path>
                        <path d="M70.5426063,62.3471938 L50.4702938,62.3471938 L49.0726063,63.7460687 L70.5426063,63.7460687 C70.9273563,63.7460687 71.2408563,63.4325688 71.2408563,63.0466313 C71.2408563,62.6606938 70.9273563,62.3471938 70.5426063,62.3471938" id="Fill-34" fill="#297FBD" mask="url(#mask-6)"></path>
                        <path d="M70.5426063,66.0744 L46.7451063,66.0744 L45.3474188,67.473275 L70.5426063,67.473275 C70.9273563,67.473275 71.2408563,67.159775 71.2408563,66.775025 C71.2408563,66.3879 70.9273563,66.0744 70.5426063,66.0744" id="Fill-35" fill="#297FBD" mask="url(#mask-6)"></path>
                        <path d="M51.1007375,71.4332313 L41.3893625,71.4332313 L40.2256125,72.5969812 L51.1007375,72.5969812 C51.42255,72.5969812 51.6826125,72.3369188 51.6826125,72.0151063 C51.6826125,71.6944812 51.42255,71.4332313 51.1007375,71.4332313" id="Fill-36" fill="#297FBD" mask="url(#mask-6)"></path>
                        <path d="M60.9243313,81.7518937 C60.9243313,81.0928313 61.2746438,80.4040813 61.4112063,79.9385812 L23.8066437,79.9385812 C23.6392063,80.1713312 23.5394563,80.9087687 23.5394563,81.6426438 C23.5394563,86.5197062 27.5258938,90.5168312 32.3993938,90.5168312 L32.4587688,90.6545812 L69.2035813,90.6545812 L67.7477063,90.3078312 C63.7897688,89.5038937 60.9243313,86.0375813 60.9243313,81.7518937" id="Fill-37" fill="#D2D2D2" mask="url(#mask-6)"></path>
                        <polygon id="Fill-38" fill="#F7CC51" mask="url(#mask-6)" points="65.88535 31.5968812 65.88535 40.4485062 68.6795375 38.0034438 71.473725 40.5648812 71.473725 31.3641312"></polygon>
                        <path d="M72.7900688,29.7420062 C72.7900688,31.9614438 70.9921937,33.7593187 68.7739438,33.7593187 C66.5568813,33.7593187 64.7578187,31.9614438 64.7578187,29.7420062 C64.7578187,27.5225688 66.5568813,25.7235062 68.7739438,25.7235062 C70.9921937,25.7235062 72.7900688,27.5225688 72.7900688,29.7420062" id="Fill-39" fill="#F6883C" mask="url(#mask-6)"></path>
                    </g>
                    <g id="Group-43" transform="translate(64.125000, 24.937500)">
                        <mask id="mask-8" fill="white">
                            <use xlink:href="#path-7"></use>
                        </mask>
                        <g id="Clip-42"></g>
                        <path d="M7.43576875,1.91175625 L1.75833125,7.59275625 C2.48864375,8.35038125 3.51345625,8.82181875 4.64870625,8.82181875 C6.86695625,8.82181875 8.66483125,7.02394375 8.66483125,4.80450625 C8.66483125,3.66806875 8.19458125,2.64206875 7.43576875,1.91175625" id="Fill-41" fill="#D7732C" mask="url(#mask-8)"></path>
                    </g>
                    <g id="Group-76" transform="translate(36.812500, 33.250000)">
                        <path d="M55.4240687,29.4045187 C54.7721312,30.0564562 53.7164437,30.0564562 53.0645063,29.4045187 C52.4137563,28.7525812 52.4137563,27.6968937 53.0645063,27.0437687 L55.1283813,24.9775187 C55.7803187,24.3267687 56.8360062,24.3267687 57.4879437,24.9775187 C58.1398813,25.6294562 58.1398813,26.6875187 57.4879437,27.3394562 L55.4240687,29.4045187 Z" id="Fill-44" fill="#F9B2EF"></path>
                        <polygon id="Fill-46" fill="#004481" points="54.8337625 25.2738 57.1921375 27.6333625 36.2541375 48.584425 33.8957625 46.223675"></polygon>
                        <polygon id="Fill-48" fill="#A3A3A3" points="54.8337625 25.2738 57.1921375 27.6333625 56.30745 28.51805 53.9502625 26.1584875"></polygon>
                        <polygon id="Fill-50" fill="#2B85C9" points="53.950025 26.1586062 55.128025 27.3389812 35.0747125 47.4053562 33.895525 46.2226062"></polygon>
                        <polygon id="Fill-52" fill="#E8E8E8" points="54.8337625 25.2738 56.01295 26.454175 55.1282625 27.3388625 53.9502625 26.1584875"></polygon>
                        <polygon id="Fill-54" fill="#F2DCB7" points="32.8835375 49.6604187 33.378725 47.9314187 33.8739125 46.2024187 35.1065375 47.4362312 36.3391625 48.6700437 34.6125375 49.1652312"></polygon>
                        <polygon id="Fill-56" fill="#CCB792" points="33.8739125 46.2023 33.3632875 47.9158625 32.8526625 49.629425 35.0756625 47.4052375"></polygon>
                        <polygon id="Fill-58" fill="#424242" points="32.8789062 49.66505 33.0107187 49.0439875 33.1437187 48.4217375 33.6329687 48.9109875 34.1210313 49.4002375 33.4999688 49.5332375"></polygon>
                        <path d="M36.3404688,48.6701625 C36.3012813,48.6321625 36.6504063,48.03485 36.5007813,47.885225 C36.3523438,47.7367875 35.7562188,48.0859125 35.7170313,48.046725 L36.3404688,48.6701625 Z" id="Fill-60" fill="#F2DCB7"></path>
                        <path d="M35.7305688,48.0601438 C35.6913812,48.0221438 36.0405063,47.4248313 35.8908812,47.2752063 C35.7424437,47.1255813 35.1463188,47.4747063 35.1071313,47.4367063 L35.7305688,48.0601438 Z" id="Fill-62" fill="#F2DCB7"></path>
                        <path d="M35.1066563,47.4362313 C35.0686563,47.3982313 35.4201563,46.8032938 35.2752813,46.6584188 C35.1292187,46.5123563 34.5354687,46.8638563 34.4962812,46.8246688 L35.1066563,47.4362313 Z" id="Fill-64" fill="#CCB792"></path>
                        <path d="M34.5105312,46.8390375 C34.4713438,46.79985 34.8180938,46.2001625 34.6649063,46.0481625 C34.5129063,45.8961625 33.9132187,46.241725 33.8740313,46.2025375 L34.5105312,46.8390375 Z" id="Fill-66" fill="#CCB792"></path>
                        <path d="M18.6196438,1.65834375 C18.4498313,1.13703125 18.3536438,1.01471875 17.8560813,1.01471875 L16.6460188,1.01471875 L14.7044563,7.35715625 L15.6900813,7.35715625 L16.1045188,5.98796875 L18.4165813,5.98796875 L18.8333938,7.35715625 L20.5493313,7.35715625 L18.6196438,1.65834375 Z M16.3859563,5.05815625 L17.2504563,2.16540625 L18.1292063,5.05815625 L16.3859563,5.05815625 Z" id="Fill-68" fill="#2B85C9"></path>
                        <path d="M9.024525,3.50158125 L9.3273375,3.04083125 C9.9875875,2.06708125 9.532775,1.01139375 8.2372125,1.01139375 L5.47865,1.01139375 L5.47865,7.35739375 L8.141025,7.35739375 C10.482775,7.35739375 11.190525,4.63089375 9.024525,3.50158125 L9.024525,3.50158125 Z M6.97015,6.50714375 L6.97015,1.84145625 L7.784775,1.84145625 C8.1754625,1.84145625 8.5150875,2.16564375 8.5150875,2.55395625 C8.5150875,2.69051875 8.4854,2.81520625 8.354775,3.01470625 L7.8287125,3.80676875 C8.378525,3.93858125 8.74665,4.36133125 8.74665,5.15220625 C8.74665,6.10220625 8.1754625,6.50714375 7.4202125,6.50714375 L6.97015,6.50714375 Z" id="Fill-70" fill="#2B85C9"></path>
                        <path d="M3.6529875,3.50158125 L3.9653,3.04083125 C4.61605,2.06708125 4.1683625,1.01139375 2.875175,1.01139375 L0.1118625,1.01139375 L0.1118625,7.35739375 L2.7778,7.35739375 C5.1148,7.35739375 5.82255,4.63089375 3.6529875,3.50158125 M2.0558,6.50714375 L1.602175,6.50714375 L1.602175,1.84145625 L2.4179875,1.84145625 C2.8098625,1.84145625 3.150675,2.16564375 3.150675,2.55395625 C3.150675,2.69051875 3.1209875,2.81520625 2.989175,3.01470625 L2.461925,3.80676875 C3.0093625,3.93858125 3.38105,4.36133125 3.38105,5.15220625 C3.38105,6.10220625 2.8098625,6.50714375 2.0558,6.50714375" id="Fill-72" fill="#2B85C9"></path>
                        <path d="M11.8088563,1.83979375 C11.5832313,1.12491875 11.4680438,1.01210625 11.0346063,1.01210625 L9.91479375,1.01210625 L11.9869813,7.35810625 L13.5141063,7.35810625 L15.4461688,1.01210625 L14.4391688,1.01210625 L13.0129813,5.82979375 L11.8088563,1.83979375 Z" id="Fill-74" fill="#2B85C9"></path>
                    </g>
                </g>
            </g>
        </g>
    </g>
</svg>