<?xml version="1.0" encoding="UTF-8"?>
<svg width="114px" height="114px" viewBox="0 0 114 114" version="1.1" xmlns="http://www.w3.org/2000/svg" xmlns:xlink="http://www.w3.org/1999/xlink">
    <!-- Generator: Sketch 54.1 (76490) - https://sketchapp.com -->
    <title>Precaptura_de_informaión_Microilustration_Cheque</title>
    <desc>Created with Sketch.</desc>
    <defs>
        <polygon id="path-1" points="0.0002375 0 113.831612 0 113.831612 113.900131 0.0002375 113.900131"></polygon>
        <polygon id="path-3" points="0.21162561 0.154135366 97 0.154135366 97 96.9997634 0.21162561 96.9997634"></polygon>
    </defs>
    <g id="Page-1" stroke="none" stroke-width="1" fill="none" fill-rule="evenodd">
        <g id="Happy-path_Cheque-de-caja_01" transform="translate(-159.000000, -376.000000)">
            <g id="Group-8" transform="translate(64.000000, 352.000000)">
                <g id="Precaptura_de_informaión_Microilustration_Cheque" transform="translate(95.000000, 24.000000)">
                    <g id="Group-3">
                        <mask id="mask-2" fill="white">
                            <use xlink:href="#path-1"></use>
                        </mask>
                        <g id="Clip-2"></g>
                        <path d="M56.9147375,-0.00011875 C88.34905,-0.00011875 113.831612,25.4978812 113.831612,56.9511937 C113.831612,88.4009437 88.34905,113.900131 56.9147375,113.900131 C25.4828,113.900131 0.0002375,88.4009437 0.0002375,56.9511937 C0.0002375,25.4978812 25.4828,-0.00011875 56.9147375,-0.00011875" id="Fill-1" fill="#004481" mask="url(#mask-2)"></path>
                    </g>
                    <g id="Group-6" transform="translate(17.000000, 17.000000)">
                        <mask id="mask-4" fill="white">
                            <use xlink:href="#path-3"></use>
                        </mask>
                        <g id="Clip-5"></g>
                        <path d="M80.3939549,0.154135366 C102.535979,22.309172 102.535979,58.229928 80.3939549,80.3849646 C58.2531134,102.537635 22.3548329,102.538818 0.21162561,80.3837817 L80.3939549,0.154135366 Z" id="Fill-4" fill="#053161" mask="url(#mask-4)"></path>
                    </g>
                    <polygon id="Fill-7" fill="#F9DD8D" points="64.4038005 92.5953987 65.4988124 96 66.5938242 92.5953987 70 91.500595 66.5938242 90.4046013 65.4988124 87 64.4038005 90.4046013 61 91.500595"></polygon>
                    <polygon id="Fill-9" fill="#F9DD8D" points="83 21.5 85.6485816 22.3515515 86.4975177 25 87.3501773 22.3515515 90 21.5 87.3501773 20.6484485 86.4975177 18 85.6485816 20.6484485"></polygon>
                    <polygon id="Fill-11" fill="#F9DD8D" points="11 63 12.512766 63.4865151 12.9989362 65 13.4861702 63.4865151 15 63 13.4861702 62.5134849 12.9989362 61 12.512766 62.5134849"></polygon>
                    <path d="M93,75.7689165 C93,76.4495349 92.4544833,77 91.7799833,77 L23.2223833,77 C22.5467,77 22,76.4495349 22,75.7689165 L22,40.2334716 C22,39.5516591 22.5467,39 23.2223833,39 L91.7799833,39 C92.4544833,39 93,39.5516591 93,40.2334716 L93,75.7689165" id="Fill-13" fill="#053161"></path>
                    <path d="M93,73.7677225 C93,74.4471468 92.4544833,75 91.7799833,75 L23.2223833,75 C22.5467,75 22,74.4471468 22,73.7677225 L22,56 L22,38.2310835 C22,37.5516591 22.5467,37 23.2223833,37 L91.7799833,37 C92.4544833,37 93,37.5516591 93,38.2310835 L93,73.7677225" id="Fill-15" fill="#FFFFFF"></path>
                    <path d="M91.771681,75 C92.450771,75 93,74.4471642 93,73.7677612 L93,38.2322388 C93,37.5528358 92.450771,37 91.771681,37 L77.8932248,37 L40,75 L91.771681,75 Z" id="Fill-17" fill="#F3F3F3"></path>
                    <path d="M38.59118,42.9136276 C38.3480334,42.1245856 38.2252682,42 37.7580453,42 L36.5542312,42 L38.784267,49 L40.4266985,49 L42.5065554,42 L41.4231228,42 L39.88677,47.3156517 L38.59118,42.9136276 Z M29.8128725,44.7469901 L30.147795,44.2376549 C30.8486293,43.1652417 30.3671037,42 28.9749702,42 L26,42 L26,49 L28.8700834,49 C31.3873659,49 32.147795,45.9928459 29.8128725,44.7469901 L29.8128725,44.7469901 Z M28.0941597,48.0631652 L27.6066746,48.0631652 L27.6066746,42.9148491 L28.4839094,42.9148491 C28.9058403,42.9148491 29.272944,43.2727273 29.272944,43.7014483 C29.272944,43.8516838 29.2395709,43.9897051 29.0989273,44.209562 L28.5315852,45.084104 C29.1203814,45.2294538 29.5196663,45.6948177 29.5196663,46.5669168 C29.5196663,47.6161228 28.9058403,48.0631652 28.0941597,48.0631652 L28.0941597,48.0631652 Z M35.5947557,44.7469901 L35.9213349,44.2376549 C36.6305125,43.1652417 36.1418355,42 34.7473182,42 L31.7783075,42 L31.7783075,49 L34.6436234,49 C37.1644815,49 37.9261025,45.9928459 35.5947557,44.7469901 L35.5947557,44.7469901 Z M33.3837902,48.0631652 L33.3837902,42.9148491 L34.2598331,42.9148491 C34.6805721,42.9148491 35.0464839,43.2727273 35.0464839,43.7014483 C35.0464839,43.8516838 35.0154946,43.9897051 34.8736591,44.209562 L34.3087008,45.084104 C34.8998808,45.2294538 35.29559,45.6948177 35.29559,46.5669168 C35.29559,47.6161228 34.6805721,48.0631652 33.8688915,48.0631652 L33.3837902,48.0631652 Z M45.9237187,42.7133136 C45.7413588,42.1380213 45.6376639,42.0036643 45.1013111,42.0036643 L43.7985697,42.0036643 L41.7091776,49 L42.7699642,49 L43.2145411,47.4890944 L45.70441,47.4890944 L46.1525626,49 L48,49 L45.9237187,42.7133136 Z M43.5184744,46.4643169 L44.4493445,43.2727273 L45.3945173,46.4643169 L43.5184744,46.4643169 Z" id="Fill-19" fill="#082146"></path>
                    <path d="M50,53 L45.7489341,53 L45.7489341,57.3518519 L50,53 M40.5337463,53 L35,53 L35,66 L37.3011021,66 L39.0024938,64.2580247 C38.9675006,64.2592593 38.9313008,64.2592593 38.895101,64.2592593 L37.9888987,64.2592593 L37.9888987,54.7012346 L39.6190974,54.7012346 C40.4034269,54.7012346 41.0863969,55.3654321 41.0863969,56.1604938 C41.0863969,56.4407407 41.0248572,56.6962963 40.7642185,57.1037037 L39.7071837,58.7283951 C40.8028316,58.9975309 41.5473413,59.862963 41.5473413,61.4814815 C41.5473413,61.5407407 41.5461347,61.6 41.5437213,61.6580247 L43.7350173,59.4135802 C43.3259593,58.917284 42.7817553,58.4679012 42.092752,58.1012346 L42.7153889,57.1567901 C44.0185826,55.162963 43.1232403,53 40.5337463,53" id="Fill-21" fill="#E7F1F9"></path>
                    <path d="M64.9450172,53 L62.9613246,53 L60.1525773,62.8709647 L57.7795064,54.6972085 C57.3355201,53.2320547 57.1111528,53 56.2564199,53 L54.0507341,53 L58.1332709,66 L61.1390815,66 L64.9450172,53 M50.7457669,53 L49.494533,53 L45.3122774,57.3510254 L45.3122774,65.9975313 L50.5558263,65.9975313 C55.1690097,65.9975313 56.5638863,60.4134068 52.2973446,58.1002659 L52.8932833,57.1560008 C54.1931896,55.1625522 53.2980943,53 50.7457669,53 M48.2492346,64.2571212 L48.2492346,54.7009115 L49.8542331,54.7009115 C50.6234927,54.7009115 51.2942206,55.3649829 51.2942206,56.1598937 C51.2942206,56.4400874 51.2348641,56.6955944 50.9748828,57.1029244 L49.9420806,58.7273073 C51.022368,58.9963919 51.7477038,59.8616597 51.7477038,61.4798709 C51.7477038,63.4288834 50.6234927,64.2571212 49.1383943,64.2571212 L48.2492346,64.2571212 M69.6947204,53.0061717 L67.3085911,53.0061717 L63.4860356,65.9975313 L65.4269916,65.9975313 L66.2425492,63.1931257 L70.7987504,63.1931257 L71.6202437,65.9975313 L75,65.9975313 L71.2,54.3256741 C70.8652296,53.2567414 70.6764761,53.0061717 69.6947204,53.0061717 M66.7981256,61.2897835 L68.4992815,55.3649829 L70.2324898,61.2897835 L66.7981256,61.2897835 M43.3309591,59.4123623 L41.1751328,61.6563806 C41.1110278,63.4350551 40.0616057,64.2188568 38.6750391,64.2558868 L37,65.9975313 L39.9891909,65.9975313 C43.8663543,65.9975313 45.4666042,62.0439613 43.3309591,59.4123623" id="Fill-23" fill="#DDE7EE"></path>
                    <path d="M69,59.4995851 C69,59.7759336 68.6770949,60 68.2800413,60 L25.7199587,60 C25.3229051,60 25,59.7759336 25,59.4995851 C25,59.2240664 25.3229051,59 25.7199587,59 L68.2800413,59 C68.6770949,59 69,59.2240664 69,59.4995851" id="Fill-25" fill="#BCBCBC"></path>
                    <path d="M69,63.4995851 C69,63.7759336 68.6770949,64 68.2800413,64 L25.7199587,64 C25.3229051,64 25,63.7759336 25,63.4995851 C25,63.2240664 25.3229051,63 25.7199587,63 L68.2800413,63 C68.6770949,63 69,63.2240664 69,63.4995851" id="Fill-27" fill="#BCBCBC"></path>
                    <path d="M88,41.0322997 C88,41.5658915 87.6102839,42 87.1298278,42 L68.8701722,42 C68.3897161,42 68,41.5658915 68,41.0322997 L68,40.9664083 C68,40.4328165 68.3897161,40 68.8701722,40 L87.1298278,40 C87.6102839,40 88,40.4328165 88,40.9664083 L88,41.0322997 Z" id="Fill-29" fill="#BCBCBC"></path>
                    <path d="M88,45.0322997 C88,45.5671835 87.6102839,46 87.1298278,46 L68.8701722,46 C68.3897161,46 68,45.5671835 68,45.0322997 L68,44.9664083 C68,44.4328165 68.3897161,44 68.8701722,44 L87.1298278,44 C87.6102839,44 88,44.4328165 88,44.9664083 L88,45.0322997 Z" id="Fill-31" fill="#BCBCBC"></path>
                    <path d="M87,72.0625 C87,72.5784884 86.6594054,73 86.2386709,73 L25.7601505,73 C25.3405946,73 25,72.5784884 25,72.0625 L25,71.9375 C25,71.4200581 25.3405946,71 25.7601505,71 L86.2386709,71 C86.6594054,71 87,71.4200581 87,71.9375 L87,72.0625 Z" id="Fill-33" fill="#BCBCBC"></path>
                    <path d="M83.5633117,62.3018809 C83.5633117,61.7209591 83.325603,61.4867714 82.2077922,60.991112 C80.5867347,60.2692228 80.1055195,59.7212691 80.1055195,58.6105829 C80.1055195,57.518086 80.8163265,56.7313973 81.937616,56.4960728 L81.937616,55 L81.9851577,55 L83.2815399,55.7275734 L83.2815399,56.4676519 C83.7326067,56.5324514 84.119898,56.6688714 84.4886364,56.8769119 L84.5593692,56.9178379 L84.6045918,56.9417115 L84.5976345,56.9962795 L84.5837199,57.0735841 L84.416744,58.1058289 L84.3842764,58.2979537 L84.3634045,58.4264159 L84.2590445,58.3468375 L84.099026,58.2308805 C83.6595547,57.900062 83.1157236,57.7113477 82.6008813,57.7113477 C81.9051484,57.7113477 81.5271336,58.0171558 81.5271336,58.534415 C81.5271336,59.0164324 81.7717996,59.2415254 82.8722171,59.7371848 C84.4990724,60.4624845 85,61.0399959 85,62.2257131 C85,63.3273047 84.2915121,64.1367301 83.2815399,64.4254857 L83.2815399,66 L83.2015306,66 L81.937616,65.2860686 L81.937616,64.5243902 C81.2650742,64.4720959 80.6539889,64.2992972 80.1333488,64.0310045 L80.05218,63.9889417 L80,63.9650682 L80.0046382,63.911637 L80.0150742,63.829785 L80.1716141,62.7770773 L80.1982839,62.595184 L80.2168367,62.472406 L80.3188776,62.5428896 L80.4777365,62.6417941 C81.0830241,63.0351385 81.7602041,63.256821 82.3898423,63.256821 C83.1203618,63.256821 83.5633117,62.8930343 83.5633117,62.3018809" id="Fill-35" fill="#2B85C9"></path>
                </g>
            </g>
        </g>
    </g>
</svg>