<?xml version="1.0" encoding="UTF-8"?>
<svg width="114px" height="114px" viewBox="0 0 114 114" version="1.1" xmlns="http://www.w3.org/2000/svg" xmlns:xlink="http://www.w3.org/1999/xlink">
    <!-- Generator: Sketch 54.1 (76490) - https://sketchapp.com -->
    <title>Precaptura_de_informaión_Microilustration_Tranferencia_internacional</title>
    <desc>Created with Sketch.</desc>
    <defs>
        <polygon id="path-1" points="0 0 113.832206 0 113.832206 113.90025 0 113.90025"></polygon>
        <polygon id="path-3" points="0.21363125 0.15544375 97.375 0.15544375 97.375 97.375 0.21363125 97.375"></polygon>
    </defs>
    <g id="Page-1" stroke="none" stroke-width="1" fill="none" fill-rule="evenodd">
        <g id="Happy-path_Cheque-de-caja_01" transform="translate(-159.000000, -600.000000)">
            <g id="Group-11" transform="translate(64.000000, 576.000000)">
                <g id="Precaptura_de_informaión_Microilustration_Tranferencia_internacional" transform="translate(95.000000, 24.000000)">
                    <g id="Group-3">
                        <mask id="mask-2" fill="white">
                            <use xlink:href="#path-1"></use>
                        </mask>
                        <g id="Clip-2"></g>
                        <path d="M56.9153312,0 C88.3496437,0 113.832206,25.498 113.832206,56.9513125 C113.832206,88.4010625 88.3496437,113.90025 56.9153312,113.90025 C25.4822062,113.90025 -0.00035625,88.4010625 -0.00035625,56.9513125 C-0.00035625,25.498 25.4822062,0 56.9153312,0" id="Fill-1" fill="#004481" mask="url(#mask-2)"></path>
                    </g>
                    <g id="Group-6" transform="translate(16.625000, 16.625000)">
                        <mask id="mask-4" fill="white">
                            <use xlink:href="#path-3"></use>
                        </mask>
                        <g id="Clip-5"></g>
                        <path d="M80.7047563,0.15544375 C102.932381,22.3961312 102.932381,58.4557562 80.7047563,80.6952562 C58.4783187,102.934756 22.4412562,102.935944 0.21363125,80.6940687 L80.7047563,0.15544375 Z" id="Fill-4" fill="#053161" mask="url(#mask-4)"></path>
                    </g>
                    <polygon id="Fill-7" fill="#F9DD8D" points="20.4751125 40.128 23.0092375 40.947375 23.8214875 43.4969375 24.6373 40.947375 27.171425 40.128 24.6373 39.308625 23.8214875 36.76025 23.0092375 39.308625"></polygon>
                    <polygon id="Fill-9" fill="#F9DD8D" points="77.0309875 87.0272437 78.7208 87.5734938 79.2623 89.2728063 79.806175 87.5734938 81.4959875 87.0272437 79.806175 86.4809937 79.2623 84.7816813 78.7208 86.4809937"></polygon>
                    <polygon id="Fill-11" fill="#F9DD8D" points="70.0822125 22.365375 71.7708375 22.911625 72.313525 24.6109375 72.8562125 22.911625 74.546025 22.365375 72.8562125 21.819125 72.313525 20.1198125 71.7708375 21.819125"></polygon>
                    <path d="M85.5,56.950125 C85.5,72.92675 72.739125,85.8811875 57,85.8811875 C41.2585,85.8811875 28.4988125,72.92675 28.4988125,56.950125 C28.4988125,40.971125 41.2585,28.0166875 57,28.0166875 C72.739125,28.0166875 85.5,40.971125 85.5,56.950125" id="Fill-13" fill="#5ABDFE"></path>
                    <polygon id="Fill-15" fill="#4AA3E5" points="72.3134062 40.128 65.6408438 46.8100625 72.3134062 46.8100625"></polygon>
                    <path d="M63.7422688,48.7118437 L43.6545188,68.8245312 L43.6545188,82.5211562 C47.6362063,84.6657813 52.1783938,85.8817813 56.9996438,85.8817813 C59.1312063,85.8817813 61.2093313,85.6442813 63.2078938,85.1942188 L63.2078938,64.5519063 C63.2078938,63.7883437 63.4204563,63.1720313 63.6840813,63.1720313 L84.8393938,63.1720313 C85.2716438,61.1675313 85.4996438,59.0846562 85.4996438,56.9495312 C85.4996438,55.4164687 85.3820812,53.9119062 85.1552688,52.4441562 L74.1898938,52.4441562 L74.1898938,56.7084688 C74.1898938,57.0184062 74.1257688,57.2713437 74.0485813,57.2713437 L64.6863313,57.2713437 C64.6079563,57.2713437 64.5450188,57.0184062 64.5450188,56.7084688 L64.5450188,56.4662188 L63.8823938,56.4662188 C63.8052063,56.4662188 63.7422688,56.2132813 63.7422688,55.9033437 L63.7422688,48.7118437" id="Fill-17" fill="#4AA3E5"></path>
                    <path d="M48.438125,53.6636 C48.628125,47.1834125 48.7599375,37.952975 48.7599375,37.952975 C48.7599375,37.1870375 48.5034375,36.6194125 48.1923125,36.6194125 L47.95125,36.6194125 C47.9833125,36.7904125 48.0035,36.97685 48.0035,37.178725 C48.0035,37.178725 47.8705,46.3961 47.6805,52.8739125 L40.9438125,59.41585 L28.60925,59.41585 C28.630625,59.684225 28.6555625,59.9537875 28.68525,60.2197875 L41.7014375,60.2197875 L48.438125,53.6636 Z" id="Fill-19" fill="#01804D"></path>
                    <path d="M43.0863,65.8517437 L42.304925,65.8517437 C42.3108625,65.9514937 42.3156125,66.0536187 42.3156125,66.1581187 L42.3156125,81.7488063 C42.7538,82.0159938 43.2014875,82.2701187 43.6551125,82.5135562 L43.6551125,67.4999938 C43.6551125,66.5903687 43.3998,65.8517437 43.0863,65.8517437" id="Fill-21" fill="#01804D"></path>
                    <path d="M85.0593188,51.9078813 L74.1901313,51.9078813 L73.3850063,51.9078813 L73.3850063,52.3733813 L73.3850063,55.9026312 C73.3850063,56.2137562 73.3220687,56.4666937 73.2460688,56.4666937 L64.5452562,56.4666937 L64.5452562,56.7089437 C64.5452562,57.0188812 64.6081937,57.2718188 64.6865688,57.2718188 L74.0488188,57.2718188 C74.1260063,57.2718188 74.1901313,57.0188812 74.1901313,56.7089437 L74.1901313,52.4434438 L85.1531313,52.4434438 C85.1258188,52.2641312 85.0901938,52.0860063 85.0593188,51.9078813" id="Fill-23" fill="#01804D"></path>
                    <path d="M47.4338562,35.8152375 L37.5455438,35.8152375 L37.5360437,35.8152375 C37.3294188,36.0099875 37.1322938,36.2142375 36.9327938,36.4161125 C36.8651062,36.4838 36.7926688,36.5503 36.7249812,36.6203625 C36.7119187,36.633425 36.6988562,36.6488625 36.6846063,36.6643 C36.4471062,36.908925 36.2179187,37.160675 35.9887313,37.4136125 C35.9056063,37.5062375 35.8189188,37.597675 35.7357937,37.692675 C35.5208563,37.9373 35.3118562,38.1878625 35.1040437,38.4408 C35.0149812,38.55005 34.9247313,38.6581125 34.8356687,38.76855 C34.6397312,39.0143625 34.4485437,39.2661125 34.2597313,39.5202375 C34.1682937,39.6437375 34.0768562,39.7648625 33.9866063,39.88955 C33.8072937,40.1377375 33.6351062,40.3894875 33.4641062,40.6412375 C33.3714813,40.780175 33.2788562,40.917925 33.1886062,41.0568625 C33.0271063,41.30505 32.8715438,41.5556125 32.7183562,41.8073625 C32.6257313,41.96055 32.5342937,42.11255 32.4452312,42.266925 C32.3015437,42.513925 32.1614187,42.7644875 32.0236687,43.01505 C31.9334187,43.1813 31.8455437,43.349925 31.7588562,43.5173625 C31.6306062,43.763175 31.5059187,44.01255 31.3847938,44.2631125 C31.2992938,44.4436125 31.2149812,44.6241125 31.1318562,44.8058 C31.0202312,45.0516125 30.9097937,45.2986125 30.8041063,45.5479875 C30.7221687,45.74155 30.6437937,45.9374875 30.5666062,46.133425 C30.4692312,46.37805 30.3730437,46.622675 30.2827938,46.8708625 C30.2067938,47.0763 30.1367312,47.2841125 30.0642937,47.4931125 C29.9823563,47.73655 29.8992312,47.9799875 29.8220437,48.2258 C29.7531687,48.446675 29.6926063,48.6687375 29.6284813,48.8908 C29.5596063,49.130675 29.4907312,49.3693625 29.4277937,49.6116125 C29.3672312,49.847925 29.3126063,50.0878 29.2579812,50.3264875 C29.2033562,50.5592375 29.1487313,50.7908 29.1000437,51.0271125 C29.0477938,51.282425 29.0038562,51.5413 28.9575437,51.7989875 C28.9183563,52.0222375 28.8756063,52.2454875 28.8411687,52.4711125 C28.7984188,52.750175 28.7651688,53.0316125 28.7307312,53.31305 C28.7057937,53.52205 28.6737312,53.7298625 28.6535438,53.9412375 C28.6191062,54.26305 28.5989187,54.588425 28.5763562,54.9126125 C28.5644813,55.087175 28.5466687,55.2593625 28.5383562,55.433925 C28.5122312,55.9362375 28.4991687,56.440925 28.4991687,56.9503625 C28.4991687,57.780425 28.5336062,58.602175 28.6012937,59.4156125 L28.6084187,59.4156125 L40.9441687,59.4156125 L47.6808562,52.873675 C47.8708563,46.3958625 48.0026687,37.1784875 48.0026687,37.1784875 C48.0026687,36.9778 47.9848562,36.7889875 47.9527937,36.6203625 C47.8637313,36.1406125 47.6642313,35.8152375 47.4338562,35.8152375" id="Fill-25" fill="#49AD64"></path>
                    <path d="M41.7481063,64.511175 L29.4895438,64.511175 L29.4824188,64.511175 C29.5679188,64.8329875 29.6700438,65.147675 29.7662313,65.465925 C29.8054187,65.5929875 29.8398563,65.7236125 29.8802313,65.8518625 C29.8837938,65.8661125 29.8897313,65.8768 29.8944813,65.8898625 C30.1474188,66.6854875 30.4371688,67.4621125 30.7554188,68.225675 C30.7886688,68.301675 30.8219188,68.377675 30.8539813,68.453675 C31.1639188,69.17805 31.4987938,69.8858 31.8633563,70.576925 C31.8823563,70.6161125 31.9013563,70.6553 31.9215438,70.6921125 C32.3039188,71.41055 32.7183563,72.1076125 33.1565438,72.78805 C33.2111688,72.871175 33.2657938,72.9507375 33.3204188,73.0338625 C33.7384188,73.6656125 34.1766063,74.281925 34.6397313,74.8768625 C34.6741688,74.9208 34.7062313,74.965925 34.7406688,75.0098625 C35.1432313,75.5204875 35.5564813,76.01805 35.9899188,76.500175 C36.0766063,76.595175 36.1704188,76.680675 36.2571063,76.7733 C36.3901063,76.918175 36.5314188,77.055925 36.6691688,77.1996125 C37.0836063,77.6283 37.5111063,78.0451125 37.9516688,78.4488625 C38.1250438,78.6068 38.3007938,78.76355 38.4777313,78.917925 C38.9266063,79.3086125 39.3885438,79.682675 39.8611688,80.0448625 C40.0214813,80.1683625 40.1770438,80.295425 40.3397313,80.4153625 C40.9809813,80.884425 41.6352938,81.335675 42.3157313,81.7513 L42.3157313,81.748925 L42.3157313,70.1672375 L42.3157313,66.1582375 C42.3157313,66.0537375 42.3121688,65.9516125 42.3050438,65.8518625 C42.2563563,65.0894875 42.0236063,64.511175 41.7481063,64.511175" id="Fill-27" fill="#49AD64"></path>
                    <path d="M84.9549375,51.380275 C84.870625,50.9420875 84.778,50.50865 84.6746875,50.0764 C84.6081875,49.803275 84.5416875,49.5289625 84.46925,49.2594 C84.322,48.715525 84.1593125,48.1775875 83.982375,47.6455875 C83.8945,47.3843375 83.7983125,47.12665 83.7033125,46.8665875 C83.559625,46.4747125 83.4064375,46.0864 83.2473125,45.70165 C83.1155,45.385775 82.980125,45.072275 82.8388125,44.7623375 C82.647625,44.345525 82.448125,43.93465 82.2379375,43.5297125 C82.110875,43.2850875 81.982625,43.0404625 81.849625,42.7982125 C81.58125,42.3160875 81.3045625,41.8399 81.01125,41.3744 C80.871125,41.1523375 80.7215,40.935025 80.5754375,40.716525 C80.348625,40.379275 80.1170625,40.0479625 79.878375,39.7214 C79.70025,39.47915 79.5233125,39.2369 79.33925,39.0005875 C79.032875,38.6087125 78.7158125,38.227525 78.391625,37.852275 C78.2099375,37.6444625 78.02825,37.4378375 77.8418125,37.234775 C77.4725,36.8334 77.0960625,36.43915 76.7065625,36.0603375 C76.65075,36.0057125 76.600875,35.9463375 76.543875,35.8917125 C76.437,35.7895875 76.3194375,35.700525 76.2101875,35.5995875 C75.7815,35.2029625 75.3445,34.8182125 74.89325,34.4477125 C74.6925625,34.2838375 74.4895,34.1223375 74.2840625,33.9632125 C74.040625,33.7744 73.7971875,33.5832125 73.549,33.401525 C73.304375,33.2245875 73.055,33.054775 72.8068125,32.88615 C72.715375,32.8255875 72.6334375,32.7543375 72.5431875,32.6949625 C72.409,32.869525 72.3128125,33.2625875 72.3128125,33.7185875 L72.3128125,40.127525 L72.3128125,46.8095875 L65.64025,46.8095875 L63.88275,46.8095875 C63.804375,46.8095875 63.742625,47.062525 63.742625,47.3748375 L63.742625,48.7119625 L63.742625,55.9034625 C63.742625,56.2134 63.804375,56.4663375 63.88275,56.4663375 L64.545375,56.4663375 L73.2461875,56.4663375 C73.3221875,56.4663375 73.385125,56.2134 73.385125,55.9034625 L73.385125,52.373025 L73.385125,51.907525 L74.19025,51.907525 L85.0594375,51.907525 L85.06775,51.907525 C85.036875,51.7294 84.9881875,51.5572125 84.9549375,51.380275" id="Fill-29" fill="#49AD64"></path>
                    <path d="M76.2934312,78.2382 C79.8951187,74.4560125 82.4993062,69.6882 83.6476187,64.3622625 L83.6404937,64.3622625 L62.4946812,64.3622625 C62.2298687,64.3622625 62.0184937,64.978575 62.0184937,65.7421375 L62.0184937,85.4261375 C67.4691188,84.4428875 72.3853687,81.8897625 76.2934312,78.2382" id="Fill-31" fill="#01804D"></path>
                    <path d="M63.6843188,63.1717937 C63.4206938,63.1717937 63.2081313,63.7892938 63.2081313,64.5516688 L63.2081313,85.1856688 L63.2081313,85.1939813 C73.9906313,82.7619813 82.4729438,74.1300437 84.8384438,63.1717937 L84.8325062,63.1717937 L63.6843188,63.1717937 Z" id="Fill-33" fill="#49AD64"></path>
                    <path d="M100.313588,56.950125 C100.313588,80.918625 80.8849,100.3485 56.9164,100.3485 C32.9479,100.3485 13.518025,80.918625 13.518025,56.950125 C13.518025,32.981625 32.9479,13.55175 56.9164,13.55175 C80.8849,13.55175 100.313588,32.981625 100.313588,56.950125 Z" id="Stroke-35" stroke="#FFFFFF" stroke-dasharray="0.994,1.988"></path>
                    <path d="M26.5679375,79.622825 C22.0150625,79.622825 18.3243125,83.332575 18.3243125,87.9080125 C18.3243125,92.48345 22.0150625,96.1920125 26.5679375,96.1920125 C31.1231875,96.1920125 34.81275,92.48345 34.81275,87.9080125 C34.81275,83.332575 31.1231875,79.622825 26.5679375,79.622825" id="Fill-37" fill="#8D6F22"></path>
                    <path d="M26.5679375,78.3796313 C22.0150625,78.3796313 18.3243125,82.0905688 18.3243125,86.6660062 C18.3243125,91.2402563 22.0150625,94.9476313 26.5679375,94.9476313 C31.1231875,94.9476313 34.81275,91.2402563 34.81275,86.6660062 C34.81275,82.0905688 31.1231875,78.3796313 26.5679375,78.3796313" id="Fill-39" fill="#F7CC51"></path>
                    <path d="M21.2056625,92.9485938 C22.648475,94.1930938 24.5187875,94.9483438 26.5684125,94.9483438 C31.1236625,94.9483438 34.813225,91.2409688 34.813225,86.6655313 C34.813225,84.6182812 34.0710375,82.7479687 32.846725,81.3015937 L21.2056625,92.9485938 Z" id="Fill-41" fill="#C39634"></path>
                    <path d="M27.2370937,91.645075 C24.6958437,91.645075 22.6355312,89.5657625 22.6355312,87.00195 C22.6355312,84.4381375 24.6958437,82.358825 27.2370937,82.358825 C28.4554687,82.358825 29.5634062,82.838575 30.3863438,83.61995 L29.3912188,84.624575 C28.8235937,84.0997 28.0671563,83.779075 27.2370937,83.779075 C26.1897187,83.779075 25.2610937,84.2885125 24.6792188,85.07345 L27.6123437,85.07345 L27.6123437,85.14945 L26.1790313,86.595825 L24.0700312,86.595825 C24.0522188,86.728825 24.0439062,86.8642 24.0439062,87.00195 C24.0439062,87.113575 24.0486563,87.222825 24.0593437,87.332075 L27.6123437,87.332075 L27.6123437,87.4092625 L26.1790313,88.85445 L24.6245937,88.85445 C25.2017188,89.6821375 26.1564687,90.224825 27.2370937,90.224825 C28.1182188,90.224825 28.9174062,89.863825 29.4945312,89.2807625 L30.4896562,90.2842 C29.6572187,91.1261375 28.5065312,91.645075 27.2370937,91.645075" id="Fill-43" fill="#FFFFFF"></path>
                    <path d="M95.286425,27.2370937 C95.286425,31.8113438 91.576675,35.5210937 87.00005,35.5210937 C82.4258,35.5210937 78.71605,31.8113438 78.71605,27.2370937 C78.71605,22.6604687 82.4258,18.9495312 87.00005,18.9495312 C91.576675,18.9495312 95.286425,22.6604687 95.286425,27.2370937" id="Fill-45" fill="#8D6F22"></path>
                    <path d="M95.286425,25.9939 C95.286425,30.5693375 91.576675,34.2790875 87.00005,34.2790875 C82.4258,34.2790875 78.71605,30.5693375 78.71605,25.9939 C78.71605,21.4184625 82.4258,17.707525 87.00005,17.707525 C91.576675,17.707525 95.286425,21.4184625 95.286425,25.9939" id="Fill-47" fill="#F7CC51"></path>
                    <path d="M93.3915312,20.7197375 L81.7314687,32.386925 C83.1635937,33.5684875 84.9994687,34.2786125 87.0004062,34.2786125 C90.1472812,34.2786125 92.8832812,32.524675 94.2869063,29.94305 C94.9234062,28.7686125 95.2867813,27.4243625 95.2867813,25.9922375 C95.2867813,23.9901125 94.5754687,22.15305 93.3915312,20.7197375" id="Fill-49" fill="#C39634"></path>
                    <path d="M88.1046625,28.2600062 C88.1046625,27.6460688 87.8576625,27.3978812 86.6986625,26.8753813 C85.0242875,26.1153813 84.5136625,25.5394438 84.5136625,24.3673812 C84.5136625,23.2155062 85.2451625,22.3854437 86.3922875,22.1372562 L86.3922875,20.6148812 L86.47185,20.6148812 L87.81135,21.3261938 L87.81135,22.1075688 C88.26735,22.1764437 88.6770375,22.3201313 89.0594125,22.5374437 L89.13185,22.5801937 L89.1805375,22.6086938 L89.172225,22.6633188 L89.16035,22.7488187 L88.9846,23.8341937 L88.953725,24.0384437 L88.9311625,24.1750063 L88.8219125,24.0895062 L88.6580375,23.9648187 C88.2044125,23.6180687 87.642725,23.4185688 87.10835,23.4185688 C86.3899125,23.4185688 85.99685,23.7415687 85.99685,24.2866312 C85.99685,24.7960687 86.2497875,25.0335688 87.3897875,25.5536938 C89.0701,26.3184437 89.5890375,26.9288188 89.5890375,28.1792563 C89.5890375,29.3406312 88.9026625,30.1944438 87.81135,30.5008187 L87.81135,32.1181937 L87.7306,32.1181937 L86.3922875,31.4056937 L86.3922875,30.6041313 C85.7177875,30.5459437 85.0789125,30.3654437 84.540975,30.0804437 L84.4637875,30.0388813 L84.4139125,30.0127562 L84.4210375,29.9569438 L84.4329125,29.8690688 L84.5944125,28.7599438 L84.6229125,28.5687563 L84.6419125,28.4393187 L84.7511625,28.5105687 L84.9126625,28.6174437 C85.5396625,29.0306937 86.2391,29.2658187 86.88985,29.2658187 C87.6451,29.2658187 88.1046625,28.8834438 88.1046625,28.2600062" id="Fill-51" fill="#FFFFFF"></path>
                </g>
            </g>
        </g>
    </g>
</svg>