<?xml version="1.0" encoding="UTF-8"?>
<svg width="114px" height="114px" viewBox="0 0 114 114" version="1.1" xmlns="http://www.w3.org/2000/svg" xmlns:xlink="http://www.w3.org/1999/xlink">
    <!-- Generator: Sketch 54.1 (76490) - https://sketchapp.com -->
    <title>Precaptura_de_informaión_Microilustration_SPEI</title>
    <desc>Created with Sketch.</desc>
    <defs>
        <polygon id="path-1" points="0.2130375 0.21339375 97.3748813 0.21339375 97.3748813 97.375 0.2130375 97.375"></polygon>
    </defs>
    <g id="Page-1" stroke="none" stroke-width="1" fill="none" fill-rule="evenodd">
        <g id="Happy-path_Cheque-de-caja_01" transform="translate(-496.000000, -376.000000)">
            <g id="Group-9" transform="translate(400.000000, 352.000000)">
                <g id="Precaptura_de_informaión_Microilustration_SPEI" transform="translate(96.000000, 24.000000)">
                    <path d="M56.9147375,0.000475 C88.3502375,0.000475 113.8328,25.4830375 113.8328,56.91735 C113.8328,88.3481 88.3502375,113.83185 56.9147375,113.83185 C25.4828,113.83185 0.0002375,88.3481 0.0002375,56.91735 C0.0002375,25.4830375 25.4828,0.000475 56.9147375,0.000475" id="Fill-1" fill="#004481"></path>
                    <g id="Group-5" transform="translate(16.625000, 16.557075)">
                        <mask id="mask-2" fill="white">
                            <use xlink:href="#path-1"></use>
                        </mask>
                        <g id="Clip-4"></g>
                        <path d="M80.7041625,0.21339375 C102.931788,22.4410188 102.931788,58.4780812 80.7041625,80.7057062 C58.4789125,102.932144 22.4406625,102.932144 0.2130375,80.7045187 L80.7041625,0.21339375 Z" id="Fill-3" fill="#053161" mask="url(#mask-2)"></path>
                    </g>
                    <polygon id="Fill-6" fill="#F9DD8D" points="36.0707875 17.8616625 37.164475 21.2579125 38.2605375 17.8616625 41.6651 16.77035 38.2605375 15.67785 37.164475 12.2816 36.0707875 15.67785 32.666225 16.77035"></polygon>
                    <polygon id="Fill-8" fill="#F9DD8D" points="84.6144812 88.7395 87.1486063 89.558875 87.9620438 92.1060625 88.7778562 89.558875 91.3119813 88.7395 88.7778562 87.9213125 87.9620438 85.374125 87.1486063 87.9213125"></polygon>
                    <polygon id="Fill-10" fill="#F9DD8D" points="20.8698375 71.0591687 22.5584625 71.6054187 23.10115 73.3035438 23.645025 71.6054187 25.3348375 71.0591687 23.645025 70.5129188 23.10115 68.8147938 22.5584625 70.5129188"></polygon>
                    <path d="M42.2077875,71.1263813 C42.1460375,71.4125688 42.0985375,71.6904438 42.061725,71.9564438 L42.2077875,71.8103813 L42.2077875,71.1263813" id="Fill-12" fill="#DC6373"></path>
                    <path d="M91.311625,56.9158063 C91.311625,72.6311812 78.572125,85.3742438 62.8531875,85.3742438 C47.1378125,85.3742438 34.39475,72.6311812 34.39475,56.9158063 C34.39475,41.2004313 47.1378125,28.4573688 62.8531875,28.4573688 C78.572125,28.4573688 91.311625,41.2004313 91.311625,56.9158063" id="Fill-14" fill="#5ABDFE"></path>
                    <path d="M91.2744563,55.455775 C91.2661437,55.2919 91.2495187,55.1315875 91.2376437,54.9677125 C91.2162687,54.6494625 91.1972688,54.330025 91.1652063,54.0153375 C91.1462063,53.8182125 91.1153312,53.6234625 91.0915813,53.4287125 C91.0571437,53.1508375 91.0274563,52.8705875 90.9858938,52.596275 C90.9538313,52.3908375 90.9122687,52.1889625 90.8766437,51.9859 C90.8315187,51.722275 90.7899563,51.45865 90.7365188,51.1974 C90.6961438,50.9979 90.6450813,50.8019625 90.6011438,50.60365 C90.5417687,50.3435875 90.4859563,50.0823375 90.4194562,49.82465 C90.3683937,49.6215875 90.3066438,49.423275 90.2508313,49.2214 C90.1807687,48.9732125 90.1142688,48.72265 90.0394563,48.478025 C89.9765187,48.2749625 89.9040813,48.07665 89.8363938,47.8759625 C89.7568313,47.6360875 89.6796437,47.395025 89.5941438,47.1587125 C89.5193313,46.9568375 89.4373938,46.7597125 89.3602063,46.5602125 C89.2699563,46.3298375 89.1832687,46.0970875 89.0870813,45.870275 C89.0039562,45.6719625 88.9113313,45.4772125 88.8234562,45.281275 C88.7237063,45.0568375 88.6275188,44.8324 88.5206438,44.611525 C88.4268313,44.4155875 88.3235188,44.2244 88.2249563,44.0308375 C88.1157063,43.8159 88.0100188,43.6009625 87.8960187,43.3895875 C87.7891437,43.191275 87.6739563,42.9989 87.5623312,42.80415 C87.4471438,42.6034625 87.3355188,42.3992125 87.2155812,42.2009 C87.0956437,42.003775 86.9685812,41.8125875 86.8462688,41.6202125 C86.7239563,41.429025 86.6052063,41.2354625 86.4805187,41.049025 C86.3510812,40.85665 86.2133313,40.6714 86.0791438,40.4825875 C85.9508938,40.298525 85.8238312,40.1144625 85.6908313,39.93515 C85.5542688,39.7499 85.4093937,39.571775 85.2657062,39.391275 C85.1279562,39.2143375 84.9925813,39.035025 84.8512688,38.8604625 C84.7052063,38.6847125 84.5532063,38.5137125 84.4035813,38.3403375 C84.2563313,38.1693375 84.1126437,37.99715 83.9618313,37.8297125 C83.8050813,37.657525 83.6412063,37.491275 83.4820813,37.3214625 C82.3907688,36.1743375 81.2080187,35.1127125 79.9409562,34.1579625 L40.0967688,74.00215 C45.2885188,80.9074625 53.5487687,85.37365 62.8528313,85.37365 C78.5729563,85.37365 91.3112688,72.631775 91.3112688,56.9152125 C91.3112688,56.4259625 91.2993938,55.9390875 91.2744563,55.455775" id="Fill-16" fill="#4AA3E5"></path>
                    <path d="M64.6043937,57.9003625 C69.2641438,57.9003625 73.0415813,54.146675 73.0415813,49.5949875 C73.0415813,44.888925 69.2641438,41.136425 64.6043937,41.136425 C59.9458312,41.136425 56.1683937,44.888925 56.1683937,49.5949875 C56.1683937,54.146675 59.9458312,57.9003625 64.6043937,57.9003625" id="Fill-18" fill="#1C73B7"></path>
                    <path d="M72.4182625,65.89865 L69.60745,68.7474625 L64.7588875,68.7474625 L64.7588875,65.7430875 L72.4182625,65.7430875 L72.4182625,65.89865 Z M70.4351375,58.9767125 C70.4351375,58.9767125 67.8262,60.4990875 64.6045125,60.514525 C61.382825,60.5299625 60.37345,59.7913375 58.92945,59.1310875 C52.324575,60.9812125 50.4043875,66.8332125 49.8771375,70.8814 L47.949825,72.399025 L49.72395,74.9723375 L79.6382625,74.9723375 C79.5872,74.9723375 81.019325,61.9003375 70.4351375,58.9767125 L70.4351375,58.9767125 Z" id="Fill-20" fill="#1C73B7"></path>
                    <path d="M54.3947438,47.0227437 C54.3947438,51.5744312 58.1733688,55.3281188 62.8319313,55.3281188 C67.4916812,55.3281188 71.2703063,51.5744312 71.2703063,47.0227437 C71.2703063,42.3166812 67.4916812,38.5641812 62.8319313,38.5641812 C58.1733688,38.5641812 54.3947438,42.3166812 54.3947438,47.0227437 L54.3947438,47.0227437 Z M62.8319313,57.9418062 C59.6102438,57.9572437 58.6020563,57.2198063 57.1556813,56.5583687 C46.7234938,59.4808063 47.9739313,72.3984312 47.9501813,72.3984312 L77.8668688,72.3984312 C77.8146187,72.3984312 79.2467438,59.3264312 68.6625562,56.4028062 C68.6625562,56.4028062 66.0536187,57.9275562 62.8319313,57.9418062 L62.8319313,57.9418062 Z M62.9863063,63.1715562 L70.6468688,63.1715562 L70.6468688,63.3259312 L67.8348687,66.1747437 L62.9863063,66.1747437 L62.9863063,63.1715562 Z" id="Fill-22" fill="#FFFFFF"></path>
                    <path d="M8.94270625,56.3081625 C8.94270625,56.8556 9.43433125,57.299725 10.0447063,57.299725 L42.0893938,57.299725 C42.6973938,57.299725 43.1902063,56.8556 43.1902063,56.3081625 C43.1902063,55.75835 42.6973938,55.314225 42.0893938,55.314225 L10.0447063,55.314225 C9.43433125,55.314225 8.94270625,55.75835 8.94270625,56.3081625" id="Fill-24" fill="#F68AE7"></path>
                    <path d="M17.981125,60.0538938 C17.981125,60.6512063 18.5143125,61.1345187 19.1745625,61.1345187 L46.56425,61.1345187 C47.2256875,61.1345187 47.76125,60.6512063 47.76125,60.0538938 C47.76125,59.4577687 47.2256875,58.9768312 46.56425,58.9768312 L19.1745625,58.9768312 C18.5143125,58.9768312 17.981125,59.4577687 17.981125,60.0538938" id="Fill-26" fill="#B6A6ED"></path>
                    <path d="M13.231125,60.0538938 C13.231125,60.6512063 13.7643125,61.1345187 14.4245625,61.1345187 L14.50175,61.1345187 C15.1631875,61.1345187 15.69875,60.6512063 15.69875,60.0538938 C15.69875,59.4577687 15.1631875,58.9768312 14.50175,58.9768312 L14.4245625,58.9768312 C13.7643125,58.9768312 13.231125,59.4577687 13.231125,60.0538938" id="Fill-28" fill="#B6A6ED"></path>
                    <path d="M48.9964875,58.1857187 C48.9964875,64.7003437 43.7002375,69.9811562 37.165425,69.9811562 C30.6318,69.9811562 25.3343625,64.7003437 25.3343625,58.1857187 C25.3343625,51.6722812 30.6318,46.3890937 37.165425,46.3890937 C43.7002375,46.3890937 48.9964875,51.6722812 48.9964875,58.1857187" id="Fill-30" fill="#8D6F22"></path>
                    <path d="M48.9964875,56.417175 C48.9964875,62.9306125 43.7002375,68.211425 37.165425,68.211425 C30.6318,68.211425 25.3343625,62.9306125 25.3343625,56.417175 C25.3343625,49.9037375 30.6318,44.6193625 37.165425,44.6193625 C43.7002375,44.6193625 48.9964875,49.9037375 48.9964875,56.417175" id="Fill-32" fill="#F7CC51"></path>
                    <path d="M37.1643562,68.2121375 C43.6991687,68.2121375 48.9966062,62.9301375 48.9966062,56.4155125 C48.9966062,54.0642625 48.2983562,51.878075 47.1072937,50.03745 L30.7672938,66.3287625 C32.6138562,67.515075 34.8059813,68.2121375 37.1643562,68.2121375" id="Fill-34" fill="#C39634"></path>
                    <path d="M38.7392188,59.6421875 C38.7392188,58.769375 38.3877188,58.417875 36.7347188,57.672125 C34.3430938,56.5903125 33.6115938,55.76975 33.6115938,54.100125 C33.6115938,52.4601875 34.6565938,51.2798125 36.2941563,50.92475 L36.2941563,48.756375 L36.4105313,48.756375 L38.3212188,49.7705 L38.3212188,50.884375 C38.9731563,50.98175 39.5597813,51.1848125 40.1036563,51.49475 L40.2081563,51.554125 L40.2794063,51.596875 L40.2651563,51.6764375 L40.2473438,51.796375 L39.9991563,53.3425 L39.9528438,53.6310625 L39.9219688,53.8258125 L39.7652188,53.705875 L39.5312813,53.5289375 C38.8840938,53.036125 38.0825313,52.7499375 37.3189688,52.7499375 C36.2905938,52.7499375 35.7324688,53.2095 35.7324688,53.986125 C35.7324688,54.7116875 36.0934688,55.0489375 37.7203438,55.791125 C40.1202813,56.8800625 40.8612813,57.7469375 40.8612813,59.527 C40.8612813,61.1811875 39.8792188,62.3971875 38.3212188,62.833 L38.3212188,65.13675 L38.2060313,65.13675 L36.2941563,64.1214375 L36.2941563,62.9814375 C35.3334688,62.8983125 34.4214688,62.6394375 33.6519688,62.2356875 L33.5415313,62.1775 L33.4679063,62.1383125 L33.4809688,62.0575625 L33.4975938,61.93525 L33.7279688,60.3546875 L33.7695313,60.080375 L33.7968438,59.8986875 L33.9500313,60.0008125 L34.1815938,60.1528125 C35.0793438,60.743 36.0768438,61.0755 37.0054688,61.0755 C38.0849063,61.0755 38.7392188,60.5304375 38.7392188,59.6421875" id="Fill-36" fill="#FFFFFF"></path>
                </g>
            </g>
        </g>
    </g>
</svg>