<?xml version="1.0" encoding="UTF-8"?>
<svg width="24px" height="24px" viewBox="0 0 24 24" version="1.1" xmlns="http://www.w3.org/2000/svg" xmlns:xlink="http://www.w3.org/1999/xlink">
    <!-- Generator: Sketch 54.1 (76490) - https://sketchapp.com -->
    <title>QR Icon_Active</title>
    <desc>Created with Sketch.</desc>
    <g id="Page-1" stroke="none" stroke-width="1" fill="none" fill-rule="evenodd">
        <g id="Happy-path_Cheque-de-caja_02-Copy-3" transform="translate(-328.000000, -472.000000)" fill="#1973B8">
            <g id="Group" transform="translate(16.000000, 264.000000)">
                <g id="Group-10" transform="translate(0.000000, 192.000000)">
                    <g id="QR-Icon_Active" transform="translate(312.000000, 16.000000)">
                        <g id="Group-12">
                            <polygon id="Fill-1" points="4.64 6.71 6.71 6.71 6.71 4.64 4.64 4.64"></polygon>
                            <path d="M0.5,10.85 L10.85,10.85 L10.85,0.5 L0.5,0.5 L0.5,10.85 Z M2.57,8.78 L8.78,8.78 L8.78,2.57 L2.57,2.57 L2.57,8.78 Z" id="Fill-2"></path>
                            <polygon id="Fill-3" points="17.29 6.71 19.36 6.71 19.36 4.64 17.29 4.64"></polygon>
                            <path d="M13.151,10.85 L23.5,10.85 L23.5,0.5 L13.151,0.5 L13.151,10.85 Z M15.22,8.78 L21.43,8.78 L21.43,2.57 L15.22,2.57 L15.22,8.78 Z" id="Fill-4"></path>
                            <polygon id="Fill-5" points="4.64 19.36 6.71 19.36 6.71 17.29 4.64 17.29"></polygon>
                            <path d="M0.5,23.5 L10.85,23.5 L10.85,13.151 L0.5,13.151 L0.5,23.5 Z M2.57,21.43 L8.78,21.43 L8.78,15.22 L2.57,15.22 L2.57,21.43 Z" id="Fill-6"></path>
                            <polygon id="Fill-7" points="17.29 19.36 19.36 19.36 19.36 17.29 17.29 17.29"></polygon>
                            <polygon id="Fill-8" points="13.151 15.219 15.22 15.219 15.22 13.15 13.151 13.15"></polygon>
                            <polygon id="Fill-9" points="13.1508 17.2896 13.1508 23.4996 19.3608 23.4996 19.3608 21.4296 15.2198 21.4296 15.2198 17.2896"></polygon>
                            <polygon id="Fill-10" points="17.29 15.22 23.5 15.22 23.5 13.151 17.29 13.151"></polygon>
                            <polygon id="Fill-11" points="21.43 23.5 23.5 23.5 23.5 17.29 21.43 17.29"></polygon>
                        </g>
                    </g>
                </g>
            </g>
        </g>
    </g>
</svg>