<?xml version="1.0" encoding="UTF-8"?>
<svg width="24px" height="24px" viewBox="0 0 24 24" version="1.1" xmlns="http://www.w3.org/2000/svg" xmlns:xlink="http://www.w3.org/1999/xlink">
    <!-- Generator: Sketch 54.1 (76490) - https://sketchapp.com -->
    <title>icon/medium_blue/firm</title>
    <desc>Created with Sketch.</desc>
    <defs>
        <path d="M12.4007364,1 L13.388989,1 L18.5834835,6.2495625 L18.5834835,6.6503125 C18.4774293,6.7255625 18.3761366,6.8113125 18.2822028,6.9066875 L17.2991448,7.9055 L9.9255598,15.3906875 L9.9255598,20.25 L14.7270042,20.25 L18.5834835,16.3348125 L18.5834835,21.13025 C18.5834835,21.6110625 18.1977923,22 17.7237947,22 L3.86012172,22 C3.38525834,22 3,21.608 3,21.1245625 L3,1.8754375 C3,1.392 3.39478158,1 3.86748058,1 L10.7917418,1 L10.7917418,8.875 L14.3768087,8.875 L15.9862363,7.1884375 L12.4007364,7.1884375 L12.4007364,1 Z M10.7917418,1 L12.4007364,1 L10.7917418,1 Z M19.5094022,8.1413125 C19.6020373,8.04725 19.7228093,8 19.8440142,8 C19.9634876,8 20.0820952,8.046375 20.1747303,8.139125 L21.8616424,9.852375 C22.0451812,10.03875 22.0477785,10.3375625 21.8594781,10.527 L14.0075667,18.4995625 L11.6574908,18.4995625 L11.6574908,16.113 L17.2991448,10.3856875 L18.2389154,11.3403125 L19.6492206,11.3403125 L18.0042974,9.6699375 L19.5094022,8.1413125 Z" id="path-1"></path>
    </defs>
    <g id="icon/medium_blue/firm" stroke="none" stroke-width="1" fill="none" fill-rule="evenodd">
        <mask id="mask-2" fill="white">
            <use xlink:href="#path-1"></use>
        </mask>
        <use id="web/asset/icon/object/note" fill="#1973B8" xlink:href="#path-1"></use>
    </g>
</svg>